<svg width="112" height="68" viewBox="0 0 112 68" fill="none" xmlns="http://www.w3.org/2000/svg">
<path d="M1.584 46.1513H2.88C3.584 46.1513 4.064 46.0073 4.32 45.7193C4.608 45.4313 4.752 44.9833 4.752 44.3753V23.8793C4.752 23.2713 4.608 22.8393 4.32 22.5833C4.064 22.2953 3.584 22.1513 2.88 22.1513H1.584V18.5993H18.048C21.248 18.5993 23.744 19.4313 25.536 21.0953C27.36 22.7273 28.272 25.0793 28.272 28.1513C28.272 31.2233 27.344 33.6553 25.488 35.4473C23.664 37.2073 21.168 38.0873 18 38.0873H9.84V44.3753C9.84 44.9833 9.968 45.4313 10.224 45.7193C10.512 46.0073 11.008 46.1513 11.712 46.1513H12.96V49.6553H1.584V46.1513ZM17.328 34.5353C19.344 34.5353 20.832 34.0233 21.792 32.9993C22.784 31.9433 23.28 30.3273 23.28 28.1513C23.28 25.9433 22.816 24.3913 21.888 23.4953C20.96 22.5993 19.44 22.1513 17.328 22.1513H9.84V34.5353H17.328ZM29.7559 46.1513H31.1479C31.7879 46.1513 32.2359 46.0073 32.4919 45.7193C32.7799 45.4313 32.9239 44.9673 32.9239 44.3273V23.8793C32.9239 23.2713 32.7799 22.8393 32.4919 22.5833C32.2359 22.2953 31.7879 22.1513 31.1479 22.1513H29.7559V18.5993H52.7479V24.7913H48.1399V23.8313C48.1399 23.2233 47.9959 22.7913 47.7079 22.5353C47.4199 22.2473 46.9559 22.1033 46.3159 22.1033H38.0119V32.3273H46.3159V35.8793H38.0119V46.1513H46.3159C46.9559 46.1513 47.4199 46.0233 47.7079 45.7673C47.9959 45.4793 48.1399 45.0153 48.1399 44.3753V43.4153H52.7479V49.6553H29.7559V46.1513ZM62.2961 46.1033H63.5921C64.2961 46.1033 64.7761 45.9753 65.0321 45.7193C65.3201 45.4313 65.4641 44.9833 65.4641 44.3753V22.1993H61.0481C60.4081 22.1993 59.9441 22.3433 59.6561 22.6313C59.3681 22.8873 59.2241 23.3193 59.2241 23.9273V25.4633H55.4321V18.6473H80.5361V25.4633H76.7441V23.9273C76.7441 23.2873 76.6001 22.8393 76.3121 22.5833C76.0561 22.3273 75.5921 22.1993 74.9201 22.1993H70.5521V44.3753C70.5521 44.9833 70.6801 45.4313 70.9361 45.7193C71.2241 45.9753 71.7201 46.1033 72.4241 46.1033H73.7201V49.6553H62.2961V46.1033Z" fill="#D68C34"/>
<path d="M96.9334 20.8H89.8534V16.42H96.9334V10.06H102.213V16.42H109.413V20.8H102.213V27.16H96.9334V20.8Z" fill="#FBA435"/>
</svg>
